<svg id="Capa_1" data-name="Capa 1" xmlns="http://www.w3.org/2000/svg" viewBox="0 0 211.03 323.24"><defs><style>.cls-1{fill:#fff;}</style></defs><path class="cls-1" d="M419.32,236.94l-11.56,3.48,13.08,204.86A3.2,3.2,0,0,0,424,447.9H572.67a3.17,3.17,0,0,0,3.14-2.62l13.3-208.34Zm50.25,169.41a9.59,9.59,0,1,1-19.18,0V278.49a9.59,9.59,0,1,1,19.18,0Zm38.35,0a9.59,9.59,0,0,1-19.18,0V278.49a9.59,9.59,0,0,1,19.18,0Zm38.36,0a9.59,9.59,0,1,1-19.18,0V278.49a9.59,9.59,0,1,1,19.18,0Z" transform="translate(-384.26 -124.66)"/><path class="cls-1" d="M593.28,164.6l-176.8,53.16-24.32,7.31a2.79,2.79,0,0,1-3.5-1.88l-1.54-5.11L384.39,209a2.77,2.77,0,0,1,.21-2.15,2.81,2.81,0,0,1,1.67-1.37l78-23.44,45.07-13.56.1,0s.06,0,.09,0L587.39,145a2.8,2.8,0,0,1,.83-.13,2.65,2.65,0,0,1,1.31.35,2.69,2.69,0,0,1,1.37,1.66l4.27,14.19A2.83,2.83,0,0,1,593.28,164.6Z" transform="translate(-384.26 -124.66)"/><path class="cls-1" d="M513.08,147.32l-18.37,5.53-2-6.74a3.19,3.19,0,0,0-4-2.14L468,150.2a3.15,3.15,0,0,0-1.89,1.55,3.19,3.19,0,0,0-.25,2.43l2,6.73-18.36,5.53-2-6.74a22.4,22.4,0,0,1,15-27.87l20.69-6.22a22.41,22.41,0,0,1,27.88,15Z" transform="translate(-384.26 -124.66)"/></svg>