<svg id="Visitado" xmlns="http://www.w3.org/2000/svg" viewBox="0 0 426.12 261.4"><defs><style>.cls-1{isolation:isolate;}.cls-2{fill:#fff;}.cls-3{fill:#f18a00;}</style></defs><g class="cls-1"><path class="cls-2" d="M158.56,222c-15.62,9.07-26.33,19.93-32.15,31.45q0-7.27,0-14.54c5.82-11.52,16.53-22.37,32.15-31.45,33.85-19.67,82.22-26,125.54-19.05q0,7.28,0,14.54C240.78,196,192.41,202.32,158.56,222Z" transform="translate(-36.83 -136.72)"/><path class="cls-2" d="M126.41,253.45a46.52,46.52,0,0,0-5.18,20.84l0-14.54a46.38,46.38,0,0,1,5.17-20.84Q126.44,246.19,126.41,253.45Z" transform="translate(-36.83 -136.72)"/><path class="cls-2" d="M284.1,203q0-7.26,0-14.54c20.64,3.33,40.14,9.68,56.38,19.05,25.34,14.63,38,33.88,37.91,53.09l0,14.54c.07-19.21-12.57-38.46-37.91-53.09h0C324.24,212.63,304.74,206.28,284.1,203Z" transform="translate(-36.83 -136.72)"/><path class="cls-3" d="M358.27,260.46l0,14.54c0-16.19-10.62-32.41-32-44.73-42.43-24.5-111.24-24.5-153.39,0-20.94,12.17-31.42,28.13-31.47,44.12l0-14.54c0-16,10.52-31.95,31.46-44.11,42.15-24.5,111-24.5,153.39,0C347.65,228.06,358.31,244.27,358.27,260.46Z" transform="translate(-36.83 -136.72)"/><path class="cls-3" d="M442.68,260.7l-.05,14.54c.09-28.8-18.88-57.64-56.85-79.56-75.46-43.57-197.85-43.57-272.82,0-37.24,21.64-55.88,50-56,78.46l0-14.54c.08-28.43,18.72-56.82,56-78.46,75-43.57,197.36-43.57,272.82,0C423.79,203.06,442.76,231.91,442.68,260.7Z" transform="translate(-36.83 -136.72)"/><path class="cls-2" d="M146,292.6a39.34,39.34,0,0,1-4.57-18.21l0-14.54A39.21,39.21,0,0,0,146,278.06Q146,285.34,146,292.6Z" transform="translate(-36.83 -136.72)"/><path class="cls-2" d="M149.18,297.94A49.7,49.7,0,0,1,146,292.6q0-7.28,0-14.54a47.32,47.32,0,0,0,3.22,5.34Q149.2,290.68,149.18,297.94Z" transform="translate(-36.83 -136.72)"/><path class="cls-2" d="M149.18,297.94a.29.29,0,0,1,0-.13v-1q0-6.7,0-13.43l.28.42q0,7.26,0,14.53Z" transform="translate(-36.83 -136.72)"/><path class="cls-2" d="M173.37,319.12c-10.6-6.12-18.57-13.2-23.9-20.77q0-7.26,0-14.53c5.33,7.56,13.3,14.64,23.9,20.76,42.43,24.49,111.24,24.49,153.39,0h0c20.95-12.17,31.43-28.13,31.47-44.12l0,14.54c0,16-10.53,31.95-31.47,44.12C284.61,343.61,215.8,343.61,173.37,319.12Z" transform="translate(-36.83 -136.72)"/><path class="cls-2" d="M326.3,215.73c42.43,24.49,42.65,64.35.5,88.84s-111,24.5-153.39,0-42.65-64.36-.5-88.85S283.87,191.23,326.3,215.73Z" transform="translate(-36.83 -136.72)"/><path class="cls-2" d="M442.63,275.22c-.07,28.41-18.68,56.78-55.87,78.43q0-7.27,0-14.54c37.19-21.64,55.8-50,55.88-78.43C442.66,265.05,442.65,270.86,442.63,275.22Z" transform="translate(-36.83 -136.72)"/><path class="cls-3" d="M378.43,260.52l0,14.54c-.05,19-12.48,37.88-37.32,52.32-50,29.05-131.6,29.05-181.92,0-25.32-14.62-38-33.85-37.92-53.06l0-14.54c-.06,19.21,12.59,38.44,37.91,53.06,50.32,29.05,131.94,29.05,181.93,0C366,298.41,378.38,279.48,378.43,260.52Z" transform="translate(-36.83 -136.72)"/><path class="cls-3" d="M340.52,207.46c50.32,29.06,50.59,76.33.6,105.38s-131.61,29.05-181.93,0-50.58-76.33-.59-105.38S290.2,178.41,340.52,207.46ZM173.41,304.58c42.43,24.49,111.24,24.49,153.39,0s41.93-64.35-.5-88.84-111.24-24.5-153.39,0-41.92,64.35.5,88.85" transform="translate(-36.83 -136.72)"/><path class="cls-2" d="M315.87,379.79q0-7.26,0-14.54c25.88-5.39,50.14-14.08,70.8-26.09h0l.09-.05q0,7.26,0,14.54l-.09.05C366,365.7,341.75,374.4,315.87,379.79Z" transform="translate(-36.83 -136.72)"/><path class="cls-2" d="M113.85,353.7h0C75.89,331.79,56.92,303,57,274.16l0-14.54c-.08,28.79,18.89,57.63,56.85,79.55h0c54.67,31.56,134,40.25,202,26.08q0,7.28,0,14.54C247.81,394,168.52,385.27,113.85,353.7Z" transform="translate(-36.83 -136.72)"/><path class="cls-2" d="M385.82,181.14c75.46,43.57,75.86,114.45.89,158s-197.36,43.57-272.82,0S38,224.71,113,181.14,310.36,137.57,385.82,181.14ZM159.19,312.84c50.32,29.05,131.94,29.05,181.93,0s49.72-76.32-.6-105.38-131.93-29.05-181.92,0-49.73,76.33.59,105.38" transform="translate(-36.83 -136.72)"/><path class="cls-3" d="M36.83,274.08l0-14.54c-.09,31.81,20.86,63.67,62.8,87.89,40.38,23.31,94,36.15,150.88,36.15S360.91,370.74,401,347.43s62.11-54.31,61.93-87.28l0,14.54c.18,33-21.81,64-61.93,87.27s-93.55,36.16-150.47,36.16S140,385.28,99.63,362C57.69,337.75,36.74,305.89,36.83,274.08Z" transform="translate(-36.83 -136.72)"/><path class="cls-3" d="M463,260.15c.18,33-21.81,64-61.93,87.28s-93.55,36.15-150.47,36.15-110.5-12.84-150.88-36.15c-83.35-48.12-83.79-126.43-1-174.56,40.12-23.31,93.56-36.15,150.47-36.15S359.66,149.57,400,172.88,462.76,227.18,463,260.15Zm-349.06,79c75.46,43.56,197.85,43.56,272.82,0s74.57-114.45-.89-158S188,137.57,113,181.14s-74.57,114.46.89,158" transform="translate(-36.83 -136.72)"/></g></svg>