<svg id="Capa_1" data-name="Capa 1" xmlns="http://www.w3.org/2000/svg" viewBox="0 0 279.59 279.59"><defs><style>.cls-1{fill:#fff;}</style></defs><path class="cls-1" d="M144.1,21.5A139.8,139.8,0,1,0,283.9,161.3,139.81,139.81,0,0,0,144.1,21.5ZM73.68,133a15.69,15.69,0,0,1,22.2-.41l32.51,32.5V58.64a15.7,15.7,0,0,1,31.4,0V165.13l32.51-32.5a15.7,15.7,0,0,1,22.2,22.2L155.23,214.1a16.31,16.31,0,0,1-2.41,2c-.38.25-.78.42-1.17.63a8.93,8.93,0,0,1-3.1,1.3c-.45.13-.88.31-1.36.4a15.48,15.48,0,0,1-6.14,0c-.47-.09-.9-.27-1.36-.4a12.4,12.4,0,0,1-1.57-.49,11.92,11.92,0,0,1-1.54-.81c-.38-.21-.79-.38-1.16-.63a15.14,15.14,0,0,1-2.41-2L73.68,154.81A15.7,15.7,0,0,1,73.68,133Zm168,92.36a36.47,36.47,0,0,1-36.35,36.35H82.86a36.47,36.47,0,0,1-36.35-36.35V214h0a15.71,15.71,0,0,1,31.41,0v11.38a5,5,0,0,0,4.94,5H205.33a5,5,0,0,0,4.95-5V214A15.68,15.68,0,0,1,226,198.3h0a15.7,15.7,0,0,1,15.7,15.7Z" transform="translate(-4.3 -21.5)"/></svg>