<svg id="Capa_1" data-name="Capa 1" xmlns="http://www.w3.org/2000/svg" viewBox="0 0 288.2 322.6"><defs><style>.cls-1{fill:#fff;}</style></defs><path class="cls-1" d="M127.73,252.74a22.54,22.54,0,0,0,3.55,2.91c.55.37,1.15.62,1.72.93a19.68,19.68,0,0,0,2.27,1.2,20.71,20.71,0,0,0,2.32.71c.67.2,1.31.46,2,.6a22.76,22.76,0,0,0,9.08,0c.7-.14,1.34-.4,2-.6a13.19,13.19,0,0,0,4.58-1.91c.58-.31,1.17-.56,1.73-.93a23.6,23.6,0,0,0,3.55-2.91l87.52-87.52a23.18,23.18,0,1,0-32.78-32.79h0l-48,48V23.18a23.19,23.19,0,0,0-46.37,0V180.4l-48-48a23.19,23.19,0,0,0-32.79,32.79Z" transform="translate(0 -0.47)"/><path class="cls-1" d="M265,229.4h0a23.18,23.18,0,0,0-23.18,23.18h0V269.4a7.3,7.3,0,0,1-7.3,7.3H53.67a7.3,7.3,0,0,1-7.3-7.3V252.59A23.18,23.18,0,0,0,23.2,229.4h0A23.19,23.19,0,0,0,0,252.59H0V269.4a53.84,53.84,0,0,0,53.67,53.67H234.53A53.84,53.84,0,0,0,288.2,269.4V252.59A23.18,23.18,0,0,0,265,229.4Z" transform="translate(0 -0.47)"/></svg>