<svg id="Ñëîé_1" data-name="Ñëîé 1" xmlns="http://www.w3.org/2000/svg" viewBox="0 0 232.67 238.18"><defs><style>.cls-1{fill:#fff;}</style></defs><path class="cls-1" d="M352.66,115.82l-.58.61,26.52,25.48.58-.61C396.17,123.63,369.65,98.14,352.66,115.82Z" transform="translate(-151.98 -109.84)"/><polygon class="cls-1" points="206.26 15.82 198.47 8.34 185.51 21.82 212.03 47.3 224.99 33.82 217.2 26.33 206.26 15.82"/><path class="cls-1" d="M240.9,232.7l-.2.64Z" transform="translate(-151.98 -109.84)"/><path class="cls-1" d="M248.87,240.34h0l0,0Z" transform="translate(-151.98 -109.84)"/><polygon class="cls-1" points="96.89 130.49 96.9 130.47 96.89 130.48 96.88 130.49 96.89 130.49"/><path class="cls-1" d="M344,141.39l-8-7.65-95.1,98.95h0a8.38,8.38,0,0,1,3.18.32,6.84,6.84,0,0,1,2.67,1.57,6.72,6.72,0,0,1,1,1.21,7.82,7.82,0,0,1,1.14,4.53h0l0,0a10.21,10.21,0,0,1,6.06,2.2,9.05,9.05,0,0,1,.74.65,10.07,10.07,0,0,1,2.21,3.11,10.33,10.33,0,0,1,.91,3.57l0,0h0a7,7,0,0,1,8,7.63l-2.18.77a7.17,7.17,0,0,0-2.1-4.65,7.38,7.38,0,0,0-5.85-1.89l0,0a10.23,10.23,0,0,0-9.92-9.54h0l0,0a7.38,7.38,0,0,0-2.13-5.73,7,7,0,0,0-4.28-1.89l-9,29.36,1.44,1.39L234.5,267l1.44,1.38,30.84-10.88,95.07-98.93-8-7.65Z" transform="translate(-151.98 -109.84)"/><polygon class="cls-1" points="79.95 156.62 78.51 155.24 76.38 162.12 82.94 159.49 81.74 158.34 79.95 156.62"/><path class="cls-1" d="M334,317a17,17,0,0,1-17,17H183a17,17,0,0,1-17-17V183a17,17,0,0,1,17-17H295.29l12-14H180.13A28.18,28.18,0,0,0,152,180.13V319.87A28.18,28.18,0,0,0,180.13,348H319.87A28.18,28.18,0,0,0,348,319.87V184.59l-14,13.09Z" transform="translate(-151.98 -109.84)"/></svg>