<svg id="Capa_1" data-name="Capa 1" xmlns="http://www.w3.org/2000/svg" viewBox="0 0 359.19 359.07"><defs><style>.cls-1{fill:#fff;}</style></defs><path class="cls-1" d="M40,333.78c-99.24,0-180-80.32-179.68-179.52C-139.35,51.17-54.88-26.1,41.53-25.29c97.75.82,178,81.23,178,179.89C219.43,253.48,139,333.74,40,333.78ZM-82.76,70.61V237.86h245.4V118.55H114.52V70.61Zm215.41,30h29.88V70.71H132.65Z" transform="translate(139.71 25.3)"/><path class="cls-1" d="M25.68,134.75c9,15.54,17.52,30.35,26.56,46,3.64-6.1,7-11.69,10.73-18C73,180.15,82.69,197,92.81,214.61H-20.26Z" transform="translate(139.71 25.3)"/><path class="cls-1" d="M-29,126.51a16.09,16.09,0,0,1,16.17-16.64A16.26,16.26,0,0,1,3.76,126.12,16.58,16.58,0,0,1-12.49,142.9,16.47,16.47,0,0,1-29,126.51Z" transform="translate(139.71 25.3)"/></svg>