<?xml version="1.0" encoding="utf-8"?>
<!-- Generator: Adobe Illustrator 24.1.1, SVG Export Plug-In . SVG Version: 6.00 Build 0)  -->
<svg version="1.0" id="Capa_1" xmlns="http://www.w3.org/2000/svg" xmlns:xlink="http://www.w3.org/1999/xlink" x="0px" y="0px"
	 viewBox="0 0 1000 1000" style="enable-background:new 0 0 1000 1000;" xml:space="preserve">
<g>
	<path d="M735.4,205.2c-20.5-6.9-40.9-13.7-61.4-20.5c-59.8-20-119.8-39.7-179.5-60c-17.4-5.9-29.7,4.7-28.6,20.3
		c0.9,12.6,0.2,25.3,0.2,38c0,8.6-0.1,8.7-8.6,8.7c-51.1,0-102.1,0-153.2,0c-10.3,0-10.3,0-10.3,10.3c0,95.1,0,190.2,0,285.2
		c0,95.9,0,191.8,0,287.7c0,9,0.1,9.1,9,9.1c51.7,0,103.4,0.1,155.1-0.1c6.2,0,8.3,1.8,8.2,8.1c-0.3,20.1-0.4,40.3,0.1,60.4
		c0.1,4.8,2.3,10.3,5.3,13.9c5.9,7.2,14,6.5,22.3,3.8c80.9-27,161.8-54,242.6-81c11.6-3.9,15.5-9.6,15.5-22.5
		c0-179.6,0-359.1,0-538.7C752.1,214.7,748.2,209.4,735.4,205.2z M466.1,736.3c0,10.2,0,10.3-10.2,10.3c-38.4,0-76.8,0-115.2,0
		c-9.6,0-9.6-0.1-9.6-9.6c0-166.3,0-332.5,0-498.8c0-9.3,0-9.4,9.2-9.4c38.8,0,77.6,0,116.4,0c9.3,0,9.4,0.1,9.4,9.3
		c0,83.4,0,166.9,0,250.3C466.1,571.1,466.1,653.7,466.1,736.3z M573.1,508.7c-7.1,11-17.7,11.2-24-0.3
		c-10.7-19.8-10.8-40.3-0.2-60.1c6.4-12,17.8-11.5,24.7,0.2c5.4,9.2,7,19.4,7.2,30.6C580.6,489,579.1,499.5,573.1,508.7z"/>
	<path d="M294,201.9c0,95.1,0,190.2,0,285.2c0,95.9,0,191.8,0,287.7c0-95.9,0-191.8,0-287.7C294,392.1,294,297,294,201.9z"/>
	<path d="M466.1,488.5c0,82.6,0,165.2,0,247.8C466.1,653.7,466.1,571.1,466.1,488.5c0-83.4,0-166.9,0-250.3
		C466.1,321.6,466.1,405,466.1,488.5z"/>
</g>
</svg>
