<svg id="Capa_1" data-name="Capa 1" xmlns="http://www.w3.org/2000/svg" viewBox="0 0 458.1 749"><path d="M735.43,205.16q-30.7-10.28-61.42-20.5c-59.85-20-119.78-39.68-179.5-60-17.42-5.92-29.66,4.74-28.56,20.27.89,12.6.2,25.32.17,38,0,8.64-.05,8.68-8.6,8.68q-76.61,0-153.2,0c-10.28,0-10.3,0-10.3,10.31q0,142.62,0,285.23,0,143.86,0,287.72c0,9,.12,9.12,9,9.13,51.69,0,103.38.1,155.07-.12,6.24,0,8.29,1.76,8.18,8.08-.33,20.13-.44,40.28.14,60.4a24.54,24.54,0,0,0,5.3,13.94c5.91,7.16,14.05,6.53,22.31,3.77q121.31-40.55,242.64-81c11.59-3.87,15.46-9.61,15.47-22.45q0-269.34,0-538.69C752.1,214.74,748.22,209.44,735.43,205.16ZM466.13,736.31c0,10.23,0,10.29-10.25,10.3q-57.6,0-115.2,0c-9.61,0-9.63-.07-9.63-9.58q0-249.4,0-498.79c0-9.34,0-9.41,9.24-9.42q58.21,0,116.44,0c9.35,0,9.39.08,9.4,9.34V736.31Zm107-227.62c-7.14,11-17.74,11.18-24-.35-10.71-19.75-10.76-40.32-.17-60.1,6.41-12,17.78-11.49,24.72.21,5.44,9.2,7,19.4,7.16,30.6C580.56,489.05,579.13,499.49,573.14,508.69Z" transform="translate(-294.02 -123)"/><path d="M294,201.92q0,142.62,0,285.23,0,143.86,0,287.72,0-143.86,0-287.72Q294,344.54,294,201.92Z" transform="translate(-294.02 -123)"/><path d="M466.13,488.47v0Z" transform="translate(-294.02 -123)"/></svg>