<svg id="Capa_1" data-name="Capa 1" xmlns="http://www.w3.org/2000/svg" viewBox="0 0 1165.93 1062.75"><defs><style>.cls-1{fill:#0c0c0c;}</style></defs><path class="cls-1" d="M979.91,569.55Q870.73,687.8,765.84,810.18C712.13,873.06,659.42,936.24,607.46,1001c-7.3-9.76-14.69-19.48-22.27-29.05-22.08-28.47-45.67-55.84-69.76-82.89C491,862.25,465.67,836.14,439,811c-13.33-12.6-27-24.94-41.18-37-7-6.08-14.31-12-21.74-18L364.66,747c-4.1-3.12-7.4-5.68-13.07-9.6L273.45,859.22c1.58.83,5.4,3.21,8.37,5.11l9.64,6.3C298,875,304.52,879.48,311,884.2c13.07,9.32,26.06,19.18,38.85,29.36,25.64,20.34,50.61,42,75,64.5,24.06,22.82,47.92,46.07,70.52,70.63,22.9,24.29,44.67,49.71,66.14,75.47l49.12,58.94L649.92,1123c57.5-88,118.51-175.88,180.4-262.2q93.12-129.66,191.24-255.87c65.13-84.36,132.91-166.61,202-247.88S1365.1,197.3,1439.38,120.35c-80.51,70.3-159.51,142.73-235.76,218S1052.46,490.51,979.91,569.55Z" transform="translate(-273.45 -120.35)"/></svg>