<svg id="Activo" xmlns="http://www.w3.org/2000/svg" viewBox="0 0 426.11 261.39"><defs><style>.cls-1{isolation:isolate;}.cls-2{fill:#fff;}.cls-3{fill:#f18a00;}</style></defs><g class="cls-1"><path class="cls-2" d="M333.37,226.14c-17.39-10-38.83-16.32-61.28-18.83q0-7.27,0-14.54c22.45,2.51,43.89,8.79,61.29,18.83,22.92,13.23,34.57,30.57,34.93,48q0,7.27-.05,14.54C368,256.71,356.3,239.37,333.37,226.14Z" transform="translate(-36.83 -136.72)"/><path class="cls-2" d="M165.72,226.13c-22.88,13.3-34.34,30.74-34.4,48.2l0-14.54c.06-17.46,11.52-34.9,34.4-48.19,28.79-16.74,69-23,106.37-18.83q0,7.28,0,14.54C234.69,203.13,194.51,209.4,165.72,226.13Z" transform="translate(-36.83 -136.72)"/><path class="cls-3" d="M442.68,260.7l0,14.54c.08-28.79-18.89-57.64-56.86-79.56-75.46-43.57-197.84-43.57-272.81,0-37.25,21.64-55.89,50-56,78.46l0-14.54c.08-28.43,18.72-56.82,56-78.46,75-43.57,197.35-43.56,272.81,0C423.8,203.07,442.76,231.91,442.68,260.7Z" transform="translate(-36.83 -136.72)"/><path class="cls-3" d="M368.35,260.49l0,14.54c-.05,17.47-11.5,34.92-34.39,48.22-46.08,26.77-121.29,26.77-167.66,0-23.34-13.47-35-31.2-34.94-48.9l0-14.54c-.05,17.7,11.61,35.43,34.94,48.9,46.38,26.78,121.58,26.77,167.66,0C356.85,295.41,368.3,278,368.35,260.49Z" transform="translate(-36.83 -136.72)"/><path class="cls-2" d="M368.3,274.09c0-.48,0-1,0-1.44q0-6.54,0-13.1v1l0,14.54C368.31,274.73,368.31,274.41,368.3,274.09Z" transform="translate(-36.83 -136.72)"/><path class="cls-2" d="M57,274.89v-.59l0-14.54v.59Q57,267.63,57,274.89Z" transform="translate(-36.83 -136.72)"/><path class="cls-2" d="M442.59,277.62q0-7.28,0-14.54c0-.85.05-1.69.05-2.54l0,14.54C442.64,275.93,442.62,276.77,442.59,277.62Z" transform="translate(-36.83 -136.72)"/><path class="cls-3" d="M333.41,211.6c46.38,26.77,46.62,70.33.55,97.11s-121.28,26.78-167.66,0-46.62-70.34-.54-97.11S287,184.82,333.41,211.6Z" transform="translate(-36.83 -136.72)"/><path class="cls-2" d="M254.49,386.35q0-7.26,0-14.53c48-.58,95.72-11.47,132.18-32.66,36.21-21,54.84-48.45,55.92-76.08q0,7.26,0,14.54c-1.09,27.63-19.71,55-55.92,76.08C350.21,374.89,302.53,385.78,254.49,386.35Z" transform="translate(-36.83 -136.72)"/><path class="cls-2" d="M113.86,353.71C76.21,332,57.25,303.44,57,274.89q0-7.27,0-14.54c.25,28.55,19.21,57.08,56.86,78.82,38.76,22.38,89.89,33.26,140.63,32.65q0,7.26,0,14.53C203.75,387,152.62,376.08,113.86,353.71Z" transform="translate(-36.83 -136.72)"/><path class="cls-2" d="M385.82,181.14c75.46,43.57,75.86,114.46.89,158s-197.35,43.57-272.81,0S38,224.71,113,181.14,310.36,137.58,385.82,181.14ZM166.3,308.71c46.38,26.77,121.58,26.77,167.66,0s45.83-70.34-.54-97.11-121.59-26.78-167.66,0-45.83,70.34.54,97.11" transform="translate(-36.83 -136.72)"/><path class="cls-3" d="M36.83,274.08l0-14.54c-.09,31.82,20.86,63.68,62.81,87.89,40.37,23.31,94,36.15,150.87,36.15S360.91,370.74,401,347.43s62.1-54.31,61.91-87.28l0,14.54c.19,33-21.8,64-61.92,87.28s-93.55,36.15-150.47,36.15S140,385.28,99.63,362C57.69,337.75,36.74,305.89,36.83,274.08Z" transform="translate(-36.83 -136.72)"/><path class="cls-3" d="M462.94,260.15c.19,33-21.79,64-61.91,87.28s-93.56,36.15-150.48,36.15-110.5-12.84-150.87-36.15c-83.36-48.12-83.8-126.43-1-174.55,40.12-23.32,93.56-36.16,150.48-36.16S359.67,149.57,400,172.88,462.76,227.19,462.94,260.15Zm-349,79c75.46,43.56,197.84,43.56,272.81,0s74.57-114.45-.89-158S188,137.57,113,181.14s-74.57,114.46.89,158" transform="translate(-36.83 -136.72)"/></g></svg>