<svg id="Desactivado" xmlns="http://www.w3.org/2000/svg" viewBox="0 0 426.12 261.4"><defs><style>.cls-1{isolation:isolate;}.cls-2{fill:#fff;}.cls-3{fill:#aeaeae;}</style></defs><g class="cls-1"><path class="cls-2" d="M165.71,226.13c-22.88,13.3-34.34,30.74-34.39,48.2l0-14.54c0-17.46,11.51-34.9,34.39-48.2,46.07-26.77,121.28-26.77,167.66,0,18,10.4,29.08,23.34,33.15,36.85q0,7.26,0,14.54c-4.07-13.51-15.13-26.45-33.15-36.86C287,199.36,211.78,199.36,165.71,226.13Z" transform="translate(-36.83 -136.72)"/><path class="cls-3" d="M442.68,260.7l-.05,14.54c.09-28.8-18.88-57.64-56.85-79.56-75.46-43.57-197.85-43.57-272.82,0-37.24,21.64-55.88,50-56,78.46l0-14.54c.08-28.43,18.72-56.82,56-78.46,75-43.57,197.36-43.57,272.82,0C423.79,203.06,442.76,231.91,442.68,260.7Z" transform="translate(-36.83 -136.72)"/><path class="cls-2" d="M366.52,263c0-.11,0-.26,0-.37v-2.76l0-11.41a41,41,0,0,1,1.79,12.06l0,14.54A41,41,0,0,0,366.52,263Z" transform="translate(-36.83 -136.72)"/><path class="cls-3" d="M368.35,260.49l0,14.54c-.05,17.47-11.51,34.91-34.39,48.21-46.08,26.78-121.29,26.78-167.66,0-23.34-13.48-35-31.2-34.94-48.9l0-14.54c-.05,17.7,11.6,35.43,34.94,48.9,46.37,26.77,121.58,26.77,167.66,0C356.84,295.41,368.3,278,368.35,260.49Z" transform="translate(-36.83 -136.72)"/><path class="cls-3" d="M333.41,211.6c46.37,26.77,46.62,70.33.55,97.11s-121.29,26.77-167.66,0-46.62-70.34-.55-97.12S287,184.82,333.41,211.6Z" transform="translate(-36.83 -136.72)"/><path class="cls-2" d="M386.67,353.7c-37.49,21.78-86.83,32.68-136.23,32.68q0-7.28,0-14.54c49.4,0,98.74-10.89,136.23-32.68,37.31-21.68,56-50.14,56-78.62l-.05,14.54C442.62,303.56,424,332,386.67,353.7Z" transform="translate(-36.83 -136.72)"/><path class="cls-2" d="M113.85,353.7C76,331.82,57,303.05,57,274.3l0-14.54c0,28.75,18.95,57.52,56.85,79.41,37.73,21.78,87.2,32.67,136.59,32.67q0,7.28,0,14.54C201,386.38,151.58,375.49,113.85,353.7Z" transform="translate(-36.83 -136.72)"/><path class="cls-2" d="M385.82,181.14c75.46,43.57,75.86,114.45.89,158s-197.36,43.57-272.82,0S38,224.71,113,181.14,310.36,137.57,385.82,181.14ZM166.3,308.71c46.37,26.77,121.58,26.77,167.66,0s45.82-70.34-.55-97.11-121.59-26.78-167.66,0-45.83,70.34.55,97.12" transform="translate(-36.83 -136.72)"/><path class="cls-3" d="M36.83,274.08l0-14.54c-.09,31.81,20.86,63.67,62.8,87.89,40.38,23.31,94,36.15,150.88,36.15S360.91,370.74,401,347.43s62.11-54.31,61.93-87.28l0,14.54c.18,33-21.81,64-61.93,87.27s-93.55,36.16-150.47,36.16S140,385.28,99.63,362C57.69,337.75,36.74,305.89,36.83,274.08Z" transform="translate(-36.83 -136.72)"/><path class="cls-3" d="M463,260.15c.18,33-21.81,64-61.93,87.28s-93.55,36.15-150.47,36.15-110.5-12.84-150.88-36.15c-83.35-48.12-83.79-126.43-1-174.56,40.12-23.31,93.56-36.15,150.47-36.15S359.66,149.56,400,172.88,462.76,227.18,463,260.15Zm-349.06,79c75.46,43.56,197.85,43.56,272.82,0s74.57-114.45-.89-158S188,137.57,113,181.14s-74.57,114.46.89,158" transform="translate(-36.83 -136.72)"/></g></svg>