<svg id="Layer_1" data-name="Layer 1" xmlns="http://www.w3.org/2000/svg" xmlns:xlink="http://www.w3.org/1999/xlink" viewBox="0 0 93.92 93.92"><defs><style>.cls-1{fill:none;}.cls-2{fill:#3d5057;}.cls-3{clip-path:url(#clip-path);}.cls-4{fill:#fff;}</style><clipPath id="clip-path" transform="translate(-49.17 -49.11)"><path class="cls-1" d="M96.13,49.11a47,47,0,1,0,47,47A47,47,0,0,0,96.13,49.11Z"/></clipPath></defs><path class="cls-2" d="M96.13,49.11a47,47,0,1,0,47,47A47,47,0,0,0,96.13,49.11Z" transform="translate(-49.17 -49.11)"/><g class="cls-3"><path class="cls-4" d="M121.71,75.43H85.82a1.74,1.74,0,0,0-1.73,1.76V103.5a1.73,1.73,0,0,0,1.73,1.75h20.37l7.18,8.19a1.69,1.69,0,0,0,1.9.47,1.75,1.75,0,0,0,1.12-1.64v-7h5.32a1.74,1.74,0,0,0,1.73-1.75V77.19A1.75,1.75,0,0,0,121.71,75.43Zm-18.81,25.8h0a2.46,2.46,0,1,1,2.57-2.46A2.41,2.41,0,0,1,102.88,101.23Zm3.89-11.9a5.07,5.07,0,0,0-1.65,3.79v.54h-4.27l-.06-.79a6.49,6.49,0,0,1,1.9-4.75c1-1.16,1.88-2.17,1.88-3.2s-.75-1.77-2.33-1.8A6.47,6.47,0,0,0,99,84L98,80.71a11.5,11.5,0,0,1,5.4-1.25c4.24,0,6.21,2.23,6.21,4.73C109.57,86.53,108,88,106.79,89.33Z" transform="translate(-49.17 -49.11)"/></g><g class="cls-3"><path class="cls-4" d="M81.44,107.6V90H72.55a1.73,1.73,0,0,0-1.73,1.75v22a1.74,1.74,0,0,0,1.73,1.76h4.31v5.34A1.76,1.76,0,0,0,78,122.46a1.69,1.69,0,0,0,1.91-.47l5.7-6.51h17.19a1.74,1.74,0,0,0,1.73-1.76v-5l-1-1.11Z" transform="translate(-49.17 -49.11)"/></g><g class="cls-3"><path class="cls-4" d="M121.71,75.43H85.82a1.74,1.74,0,0,0-1.73,1.76V103.5a1.73,1.73,0,0,0,1.73,1.75h20.37l7.18,8.19a1.69,1.69,0,0,0,1.9.47,1.75,1.75,0,0,0,1.12-1.64v-7h5.32a1.74,1.74,0,0,0,1.73-1.75V77.19A1.75,1.75,0,0,0,121.71,75.43Zm-18.81,25.8h0a2.46,2.46,0,1,1,2.57-2.46A2.41,2.41,0,0,1,102.88,101.23Zm3.89-11.9a5.07,5.07,0,0,0-1.65,3.79v.54h-4.27l-.06-.79a6.49,6.49,0,0,1,1.9-4.75c1-1.16,1.88-2.17,1.88-3.2s-.75-1.77-2.33-1.8A6.47,6.47,0,0,0,99,84L98,80.71a11.5,11.5,0,0,1,5.4-1.25c4.24,0,6.21,2.23,6.21,4.73C109.57,86.53,108,88,106.79,89.33Z" transform="translate(-49.17 -49.11)"/></g><g class="cls-3"><path class="cls-4" d="M81.44,107.6V90H72.55a1.73,1.73,0,0,0-1.73,1.75v22a1.74,1.74,0,0,0,1.73,1.76h4.31v5.34A1.76,1.76,0,0,0,78,122.46a1.69,1.69,0,0,0,1.91-.47l5.7-6.51h17.19a1.74,1.74,0,0,0,1.73-1.76v-5l-1-1.11Z" transform="translate(-49.17 -49.11)"/></g></svg>