<svg id="Capa_1" data-name="Capa 1" xmlns="http://www.w3.org/2000/svg" viewBox="0 0 608 608"><defs><style>.cls-1{fill:#fff;}</style></defs><path class="cls-1" d="M180.5-132.09c-167.89,0-304,136.11-304,304s136.11,304,304,304,304-136.1,304-304S348.39-132.09,180.5-132.09ZM134.07-26.61H227a12.72,12.72,0,0,1,12.6,12.83V107.67h29.09c11.25,0,16.83,13.81,8.9,21.9L189.44,219.4l-.23.23a12.43,12.43,0,0,1-17.58-.23L83.5,129.57c-7.93-8.09-2.31-21.9,8.9-21.9h29.09V-13.8A12.7,12.7,0,0,1,134.07-26.61ZM391.33,303.56H227.38v41.16h33.93a12.87,12.87,0,0,1,0,25.72H99.75a12.87,12.87,0,0,1,0-25.72h33.94V303.56H-30.25a12.81,12.81,0,0,1-12.68-12.93V20.86A12.78,12.78,0,0,1-30.24,8H107.07V27.62H-11A12.78,12.78,0,0,0-23.71,40.45V242.53A12.76,12.76,0,0,0-11,255.36H372.22a12.69,12.69,0,0,0,12.55-12.83V40.4a12.69,12.69,0,0,0-12.59-12.78H254V8H391.38a12.7,12.7,0,0,1,12.55,12.83V290.71A12.72,12.72,0,0,1,391.33,303.56Z" transform="translate(123.5 132.09)"/></svg>