<svg id="Capa_1" data-name="Capa 1" xmlns="http://www.w3.org/2000/svg" viewBox="0 0 380 337.67"><path d="M695.29,142.79H578.52v16.66H679a10.79,10.79,0,0,1,10.71,10.91V342.21A10.79,10.79,0,0,1,679,353.12H353.13a10.86,10.86,0,0,1-10.79-10.91V170.36a10.86,10.86,0,0,1,10.79-10.91H453.56V142.79H336.79A10.86,10.86,0,0,0,326,153.7V383.11a10.89,10.89,0,0,0,10.79,11h139.4v35H447.33a10.94,10.94,0,0,0,0,21.87H584.72a10.94,10.94,0,0,0,0-21.87H555.87v-35H695.29a10.82,10.82,0,0,0,10.71-11V153.7A10.79,10.79,0,0,0,695.29,142.79Z" transform="translate(-326 -113.33)"/><path d="M441.08,227.52c-9.53,0-14.31,11.75-7.57,18.63l74.95,76.39a10.57,10.57,0,0,0,15.14,0l74.94-76.39c6.74-6.88,2-18.63-7.57-18.63H566.23V124.24a10.81,10.81,0,0,0-10.71-10.91h-79a10.8,10.8,0,0,0-10.7,10.91V227.52Z" transform="translate(-326 -113.33)"/></svg>