<svg id="Capa_1" data-name="Capa 1" xmlns="http://www.w3.org/2000/svg" viewBox="0 0 1077.13 675.98"><defs><style>.cls-1{fill:#fff;}</style></defs><path d="M747,1072.08A596.93,596.93,0,0,1,219.73,755.3l-11.29-21.21,11.29-21.21a597.15,597.15,0,0,1,1054.54,0l11.29,21.21-11.29,21.21A596.93,596.93,0,0,1,747,1072.08Z" transform="translate(-208.44 -396.1)"/><path class="cls-1" d="M747,1017.77A283.68,283.68,0,0,1,546.4,533.51l35.36,35.35L546.4,533.51A283.67,283.67,0,1,1,747,1017.77Zm0-467.26a183.11,183.11,0,0,0-129.88,53.71h0A183.67,183.67,0,0,0,876.87,864c71.61-71.61,71.61-188.14,0-259.75A183.09,183.09,0,0,0,747,550.51Z" transform="translate(-208.44 -396.1)"/><circle class="cls-1" cx="434.72" cy="221" r="106.84"/></svg>