<svg id="Capa_1" data-name="Capa 1" xmlns="http://www.w3.org/2000/svg" viewBox="0 0 830.83 805.03"><defs><style>.cls-1{fill:#fff;}</style></defs><path class="cls-1" d="M924.09,1221.33H555v-27.61a13.39,13.39,0,0,1,13.37-13.37H910.72a13.39,13.39,0,0,1,13.37,13.37Z" transform="translate(-324.07 -416.29)"/><path class="cls-1" d="M901.87,1097.55v62.85H576.79v-62.85c0-14.9,10.37-27,23.1-27H878.76C891.5,1070.52,901.87,1082.65,901.87,1097.55Z" transform="translate(-324.07 -416.29)"/><path class="cls-1" d="M545.83,701.37c-13.14-3.59-25.84-7.25-37.74-10.87-83.63-25.44-111-43.54-119.84-52.06-19-18.27-29.88-42.5-29.88-66.47,0-19.78,7.47-37.86,21.05-50.91s32.27-20.19,52.74-20.19a96.66,96.66,0,0,1,36.76,7.56l11.16,4.63-1.91-11.93c-1.11-6.92-2.13-14.18-3-21.56l-.53-4.34-4.18-1.29a131.66,131.66,0,0,0-30.95-5.6,118.13,118.13,0,0,0-45.2,5.93A104.79,104.79,0,0,0,355.06,498a99.5,99.5,0,0,0-24.62,37.65A105.48,105.48,0,0,0,324.29,579c1.92,30.5,16,59.81,39.61,82.53,19.7,19,64.79,39.23,134,60.28,8.85,2.68,21.21,5.34,33.17,7.9,9.19,2,18.7,4,26,5.94l17.74,4.72L548.2,702Z" transform="translate(-324.07 -416.29)"/><path class="cls-1" d="M1148.52,535.64l-6.33,2.33,6.33-2.33A99.45,99.45,0,0,0,1123.89,498a104.8,104.8,0,0,0-39.2-23.72,118.17,118.17,0,0,0-45.2-5.92,131.23,131.23,0,0,0-31,5.62l-4.18,1.29-.53,4.34c-.89,7.28-1.92,14.54-3,21.57l-1.91,11.94,11.16-4.65a97,97,0,0,1,36.85-7.59c20.48,0,39.21,7.17,52.74,20.19s21,31.13,21,50.9c0,24-10.89,48.22-29.88,66.48-8.87,8.52-36.22,26.62-119.83,52.06-12,3.65-24.74,7.32-37.85,10.9l-2.65.72-22.13,37.73,15.86-4.23c7.08-1.88,15.45-3.77,24.32-5.77,11.6-2.62,23.6-5.33,32.62-8.07,69.22-21,114.31-41.33,134-60.27,23.62-22.73,37.69-52,39.61-82.54A105.48,105.48,0,0,0,1148.52,535.64Z" transform="translate(-324.07 -416.29)"/><path class="cls-1" d="M492.37,416.29q.47,27.25,3.44,54.14a8.47,8.47,0,0,1,.27,1.42c.22,1.88.44,3.75.67,5.63l-.14,0c0,.1,0,.21,0,.31h.14c.23,1.84.47,3.69.72,5.53a3.11,3.11,0,0,0,0,.32c.26,1.93.52,3.79.79,5.66l.05.39c.27,1.81.55,3.72.85,5.62.33,2.11.64,4.05,1,6l0,.16c.95,5.73,2,11.59,3.16,17.4a11,11,0,0,1,.17,1.88A592.46,592.46,0,0,0,567.1,693.13a10.27,10.27,0,0,1,1,1.42A625.58,625.58,0,0,0,612.31,763c.18.25.33.51.49.77q3.57,4.8,7.26,9.55L670.27,838a124.49,124.49,0,0,1,26.2,75.84c0,32-12.46,62.55-35.08,86.1l-13.47,13.38a66.56,66.56,0,0,0-19.13,37.23H850.18A66.65,66.65,0,0,0,831,1013.34l-13.3-13.21c-22.78-23.72-35.24-54.3-35.24-86.27A124.45,124.45,0,0,1,808.69,838l50.21-64.75q4-5.1,7.81-10.28l0,0A623.58,623.58,0,0,0,911,694.55c.17-.29.38-.54.57-.82a592.5,592.5,0,0,0,64-173.33,11.06,11.06,0,0,1,.18-1.52c1.16-5.86,2.23-11.77,3.19-17.55l0-.16c.31-1.9.62-3.8.91-5.7a.77.77,0,0,0,0-.15c.3-1.9.59-3.81.86-5.71h.08c0-.1,0-.2,0-.3h-.07c.26-1.86.53-3.72.78-5.59l0-.39c.24-1.84.48-3.69.71-5.53h.06c0-.1,0-.21,0-.32h-.06c.24-1.88.46-3.75.67-5.63,0-.13.06-.26.08-.39q3-27.39,3.55-55.17Zm304.93,196a19.22,19.22,0,0,0-6.89,20.16c6.92,26,10.07,44.14,11.5,54.92C787.1,681,768.69,673.11,745.8,660a20.23,20.23,0,0,0-20,0c-22.8,13.06-41.18,21-56.1,27.29,1.47-11.06,4-24.44,7.44-38.78,1.24-5.23,2.6-10.65,4.05-16.1a19.24,19.24,0,0,0-6.89-20.16c-20.58-15.94-38-32.22-48-44.86,3.23-.55,7-1.08,11.3-1.57,10.14-1.17,22.76-2.12,37.52-2.83,4.77-.23,9.7-.43,14.74-.6a19.69,19.69,0,0,0,17.88-12.66c10.21-27.1,20.47-49.28,28.07-60.84,7.67,11.55,17.94,33.73,28.16,60.84a19.67,19.67,0,0,0,17.88,12.66c5.29.18,10.45.39,15.44.64q5,.24,9.74.53l4.66.29c3.05.21,6,.42,8.87.66,10.11.82,18.47,1.79,24.85,2.88C835.32,580,817.89,596.31,797.3,612.25Z" transform="translate(-324.07 -416.29)"/></svg>